<svg width="40" height="40" viewBox="0 0 40 40" fill="none" xmlns="http://www.w3.org/2000/svg" role="img" aria-label="UI System 1 mark">
  <rect width="40" height="40" rx="10" fill="#09090b"></rect>
  <path d="M15.5 13.5a5.5 5.5 0 0 0 0 7.8l1.8 1.8a1.6 1.6 0 1 0 2.3-2.3l-1.8-1.8a2.3 2.3 0 0 1 0-3.2l3.2-3.2a2.3 2.3 0 0 1 3.2 0 1.6 1.6 0 1 0 2.3-2.3 5.5 5.5 0 0 0-7.8 0l-3.2 3.2-.2.2z" fill="#fff"></path>
  <path d="M24.5 26.5a5.5 5.5 0 0 0 0-7.8l-1.8-1.8a1.6 1.6 0 1 0-2.3 2.3l1.8 1.8a2.3 2.3 0 0 1 0 3.2l-3.2 3.2a2.3 2.3 0 0 1-3.2 0 1.6 1.6 0 1 0-2.3 2.3 5.5 5.5 0 0 0 7.8 0l3.2-3.2.2-.2z" fill="#3b6cf4"></path>
</svg>